#N canvas 145 38 1367 871 12;
#X obj 85 554 delread4~ band1;
#X obj 37 478 bp~ 600 10;
#X obj 284 548 delread4~ band2;
#X obj 713 546 delread4~ band4;
#X obj 504 547 delread4~ band3;
#X obj 306 189 *~;
#X obj 418 191 line~;
#X obj 342 316 +~;
#X obj 42 675 delwrite~ band1 3000;
#X obj 241 669 delwrite~ band2 3000;
#X obj 461 690 delwrite~ band3 3000;
#X obj 670 667 delwrite~ band4 3000;
#X obj 236 472 bp~ 1200 10;
#X obj 456 471 bp~ 3000 10;
#X obj 665 470 bp~ 8000 10;
#X obj 140 403 sig~ 100;
#X obj 337 400 sig~ 200;
#X obj 565 379 sig~ 300;
#X obj 766 372 sig~ 400;
#X obj 86 603 *~ 0.9;
#X obj 285 597 *~ 0.9;
#X obj 505 596 *~ 0.9;
#X obj 714 595 *~ 0.9;
#X obj 137 477 +~ 10;
#X obj 336 471 +~ 10;
#X obj 556 470 +~ 10;
#X obj 765 469 +~ 10;
#X obj 506 820 rev3~, f 48;
#X msg 655 747 98;
#X msg 874 789 50;
#X text 516 872 output 1 - 2 (return from reverb);
#X text 492 782 send 1-2;
#X text 595 719 outputLV/livelyness;
#X text 741 753 crossover freq;
#X text 864 759 high freq. damp;
#X msg 760 777 2000;
#X obj 876 369 osc~ 0.5;
#X obj 874 412 *~ 50;
#X obj 675 371 osc~ 0.5;
#X obj 673 414 *~ 50;
#X obj 452 372 osc~ 0.5;
#X obj 450 415 *~ 50;
#X obj 222 379 osc~ 0.5;
#X obj 220 422 *~ 50;
#X text 671 314 osc modulate delay time;
#X obj 310 136 phasor~ 5000;
#X obj 308 40 bng 19 250 50 0 empty empty empty 0 -10 0 12 #fcfcfc #000000 #000000;
#X obj 364 760 *~ 0.2;
#X obj 144 785 scope;
#X obj 304 95 random 10000;
#X obj 313 251 hip~ 10;
#X obj 31 52 tgl 19 0 empty empty empty 0 -10 0 12 #fcfcfc #000000 #000000 0 1;
#X obj 151 128 random 1000;
#X obj 39 125 metro 1000;
#X text 91 91 self-random;
#X msg 421 136 1 \, 0 1200;
#X floatatom 144 184 5 0 0 0 - - - 0;
#X obj 321 922 strec;
#X obj 35 1001 recc;
#X obj 308 1161 channelst;
#X obj 304 1465 channelst;
#X connect 0 0 19 0;
#X connect 1 0 8 0;
#X connect 2 0 20 0;
#X connect 3 0 22 0;
#X connect 4 0 21 0;
#X connect 5 0 50 0;
#X connect 6 0 5 1;
#X connect 7 0 1 0;
#X connect 7 0 12 0;
#X connect 7 0 13 0;
#X connect 7 0 14 0;
#X connect 12 0 9 0;
#X connect 13 0 10 0;
#X connect 14 0 11 0;
#X connect 15 0 23 0;
#X connect 16 0 24 0;
#X connect 17 0 25 0;
#X connect 18 0 26 0;
#X connect 19 0 8 0;
#X connect 19 0 47 0;
#X connect 20 0 9 0;
#X connect 20 0 47 0;
#X connect 21 0 10 0;
#X connect 21 0 47 0;
#X connect 22 0 11 0;
#X connect 22 0 47 0;
#X connect 23 0 0 0;
#X connect 24 0 2 0;
#X connect 25 0 4 0;
#X connect 26 0 3 0;
#X connect 27 0 57 0;
#X connect 27 1 57 1;
#X connect 28 0 27 2;
#X connect 28 0 27 3;
#X connect 29 0 27 5;
#X connect 35 0 27 4;
#X connect 36 0 37 0;
#X connect 37 0 26 0;
#X connect 38 0 39 0;
#X connect 39 0 25 0;
#X connect 40 0 41 0;
#X connect 41 0 24 0;
#X connect 42 0 43 0;
#X connect 43 0 23 0;
#X connect 45 0 5 0;
#X connect 46 0 55 0;
#X connect 46 0 49 0;
#X connect 47 0 27 0;
#X connect 47 0 27 1;
#X connect 47 0 48 0;
#X connect 47 0 57 0;
#X connect 47 0 57 1;
#X connect 49 0 45 0;
#X connect 50 0 7 0;
#X connect 51 0 53 0;
#X connect 52 0 53 1;
#X connect 52 0 56 0;
#X connect 53 0 52 0;
#X connect 53 0 46 0;
#X connect 55 0 6 0;
#X connect 57 0 58 0;
#X connect 57 0 59 0;
#X connect 57 1 58 1;
#X connect 57 1 59 1;
#X connect 59 0 60 0;
#X connect 59 3 60 1;
